<svg width="7" height="10" viewBox="0 0 7 10" fill="none" xmlns="http://www.w3.org/2000/svg">
<path d="M2.28409 6.38352V6.23864C2.28693 5.74148 2.33097 5.34517 2.41619 5.04972C2.50426 4.75426 2.6321 4.51562 2.79972 4.33381C2.96733 4.15199 3.16903 3.98722 3.40483 3.83949C3.58097 3.72585 3.73864 3.60795 3.87784 3.4858C4.01705 3.36364 4.12784 3.22869 4.21023 3.08097C4.29261 2.9304 4.33381 2.76278 4.33381 2.57812C4.33381 2.3821 4.28693 2.21023 4.19318 2.0625C4.09943 1.91477 3.97301 1.80114 3.81392 1.72159C3.65767 1.64205 3.48438 1.60227 3.29403 1.60227C3.10938 1.60227 2.93466 1.64347 2.76989 1.72585C2.60511 1.8054 2.47017 1.92472 2.36506 2.08381C2.25994 2.24006 2.20313 2.43466 2.1946 2.66761H0.455966C0.47017 2.09943 0.606534 1.63068 0.865057 1.26136C1.12358 0.889205 1.46591 0.612216 1.89205 0.430397C2.31818 0.245738 2.78835 0.153409 3.30256 0.153409C3.8679 0.153409 4.3679 0.247159 4.80256 0.434659C5.23722 0.619318 5.57813 0.887784 5.82528 1.24006C6.07244 1.59233 6.19602 2.01705 6.19602 2.5142C6.19602 2.84659 6.14063 3.14205 6.02983 3.40057C5.92188 3.65625 5.76989 3.88352 5.57386 4.08239C5.37784 4.27841 5.14631 4.45597 4.87926 4.61506C4.65483 4.74858 4.47017 4.88778 4.32528 5.03267C4.18324 5.17756 4.0767 5.34517 4.00568 5.53551C3.9375 5.72585 3.90199 5.96023 3.89915 6.23864V6.38352H2.28409ZM3.12784 9.1108C2.84375 9.1108 2.60085 9.01136 2.39915 8.8125C2.20028 8.6108 2.10227 8.36932 2.10511 8.08807C2.10227 7.80966 2.20028 7.57102 2.39915 7.37216C2.60085 7.1733 2.84375 7.07386 3.12784 7.07386C3.39773 7.07386 3.63494 7.1733 3.83949 7.37216C4.04403 7.57102 4.14773 7.80966 4.15057 8.08807C4.14773 8.27557 4.09801 8.44744 4.00142 8.60369C3.90767 8.7571 3.78409 8.88068 3.63068 8.97443C3.47727 9.06534 3.30966 9.1108 3.12784 9.1108Z" fill="white"/>
</svg>
