<svg width="33" height="32" viewBox="0 0 33 32" fill="none" xmlns="http://www.w3.org/2000/svg">
<g clip-path="url(#clip0_59_367)">
<path d="M16.2002 8C7.86426 8 1.4502 15.3438 1.4502 15.3438L0.856445 16L1.4502 16.6562C1.4502 16.6562 7.29785 23.3242 15.0752 23.9375C15.4463 23.9844 15.8174 24 16.2002 24C16.583 24 16.9541 23.9844 17.3252 23.9375C25.1025 23.3242 30.9502 16.6562 30.9502 16.6562L31.5439 16L30.9502 15.3438C30.9502 15.3438 24.5361 8 16.2002 8ZM16.2002 10C18.4033 10 20.4346 10.6016 22.2002 11.4062C22.8369 12.4609 23.2002 13.6758 23.2002 15C23.2002 18.6133 20.4893 21.582 16.9814 21.9688C16.9619 21.9727 16.9385 21.9648 16.9189 21.9688C16.6807 21.9805 16.4424 22 16.2002 22C15.9346 22 15.6768 21.9844 15.4189 21.9688C11.9111 21.582 9.2002 18.6133 9.2002 15C9.2002 13.6953 9.55176 12.4805 10.1689 11.4375H10.1377C11.9189 10.6172 13.9736 10 16.2002 10ZM16.2002 12C14.5439 12 13.2002 13.3438 13.2002 15C13.2002 16.6562 14.5439 18 16.2002 18C17.8564 18 19.2002 16.6562 19.2002 15C19.2002 13.3438 17.8564 12 16.2002 12ZM7.4502 12.9375C7.29395 13.6094 7.2002 14.2852 7.2002 15C7.2002 16.7539 7.7002 18.3945 8.5752 19.7812C6.05566 18.3242 4.30566 16.5859 3.73145 16C4.21191 15.5078 5.55176 14.2031 7.4502 12.9375ZM24.9502 12.9375C26.8486 14.2031 28.1885 15.5078 28.6689 16C28.0947 16.5859 26.3447 18.3242 23.8252 19.7812C24.7002 18.3945 25.2002 16.7539 25.2002 15C25.2002 14.2852 25.1064 13.6016 24.9502 12.9375Z" fill="#F0524D"/>
</g>
<defs>
<clipPath id="clip0_59_367">
<rect width="32" height="32" fill="white" transform="translate(0.200195)"/>
</clipPath>
</defs>
</svg>
