<svg width="33" height="32" viewBox="0 0 33 32" fill="none" xmlns="http://www.w3.org/2000/svg">
<path d="M9.90039 5C5.76367 5 2.40039 8.40234 2.40039 12.5C2.40039 13.9297 3.04883 15.168 3.65039 16.0625C4.25195 16.957 4.86914 17.5312 4.86914 17.5312L15.6816 28.375L16.4004 29.0938L17.1191 28.375L27.9316 17.5312C27.9316 17.5312 30.4004 15.3555 30.4004 12.5C30.4004 8.40234 27.0371 5 22.9004 5C19.4668 5 17.2559 7.06641 16.4004 7.9375C15.5449 7.06641 13.334 5 9.90039 5ZM9.90039 7C12.8887 7 15.6504 9.90625 15.6504 9.90625L16.4004 10.75L17.1504 9.90625C17.1504 9.90625 19.9121 7 22.9004 7C25.9434 7 28.4004 9.49609 28.4004 12.5C28.4004 14.043 26.5254 16.125 26.5254 16.125L16.4004 26.25L6.27539 16.125C6.27539 16.125 5.79102 15.6602 5.30664 14.9375C4.82227 14.2148 4.40039 13.2734 4.40039 12.5C4.40039 9.49609 6.85742 7 9.90039 7Z" fill="#F0524D"/>
</svg>
