<svg width="32" height="33" viewBox="0 0 32 33" fill="none" xmlns="http://www.w3.org/2000/svg">
<path d="M16 4.38867C11.043 4.38867 7 8.43164 7 13.3887C7 15.3066 7.84375 17.2949 9 19.0762C9.85938 20.4004 10.8867 21.6191 12 22.5449V25.3887C12 26.4824 12.9062 27.3887 14 27.3887L15 28.3887H17L18 27.3887C19.0938 27.3887 20 26.4824 20 25.3887V22.5449C21.1133 21.6191 22.1406 20.4004 23 19.0762C24.1562 17.2949 25 15.3066 25 13.3887C25 8.43164 20.957 4.38867 16 4.38867ZM16 6.38867C19.8789 6.38867 23 9.50977 23 13.3887C23 14.6973 22.3555 16.4238 21.3438 17.9824C20.4414 19.373 19.2539 20.6113 18.1562 21.3887H13.8438C12.7461 20.6113 11.5586 19.373 10.6562 17.9824C9.64453 16.4238 9 14.6973 9 13.3887C9 9.50977 12.1211 6.38867 16 6.38867ZM14.25 23.3887H17.75C17.8281 23.4434 17.9102 23.4824 18 23.5137V25.3887H14V23.5137C14.0898 23.4824 14.1719 23.4434 14.25 23.3887Z" fill="#DE4B46"/>
</svg>
