<svg width="33" height="32" viewBox="0 0 33 32" fill="none" xmlns="http://www.w3.org/2000/svg">
<path d="M26.7061 4C26.0107 4 25.042 4.03125 24.0186 4.125C21.9717 4.31641 19.6084 4.66016 18.1436 6.125C16.9131 7.35547 14.3701 10.6211 12.0186 13.6875C11.5537 14.293 11.5732 14.2812 11.1436 14.8438L9.4248 14.75C8.14746 14.6836 6.91699 15.2227 6.1123 16.2188L4.01855 18.7812L2.9873 20.0938L4.6123 20.4062L7.89355 21.0625L11.7373 24.9062L12.3936 28.1875L12.7373 29.8125L14.0186 28.7812L16.5811 26.6875C17.5771 25.8828 18.1162 24.6523 18.0498 23.375L17.9561 21.6875C18.5381 21.2461 18.5186 21.2578 19.1436 20.7812C22.2178 18.4258 25.4951 15.8984 26.7061 14.6875C28.1592 13.2344 28.4834 10.8359 28.6748 8.78125C28.8662 6.72656 28.7686 4.96875 28.7686 4.96875L28.7373 4.0625L27.8311 4.03125C27.8311 4.03125 27.4014 4 26.7061 4ZM25.7998 6C26.1982 6 26.4795 6.02344 26.7686 6.03125C26.7803 6.61328 26.8037 7.21875 26.6748 8.59375C26.499 10.4883 25.9209 12.5977 25.2686 13.25C24.3779 14.1406 20.9873 16.8398 17.9248 19.1875C15.2178 21.2617 13.3115 22.7188 12.7686 23.125L9.70605 20.0625C10.1162 19.5117 11.5186 17.5977 13.5811 14.9062C15.9248 11.8516 18.6318 8.44922 19.5498 7.53125C20.2334 6.84766 22.3193 6.26953 24.2061 6.09375C24.8896 6.03125 25.4014 6 25.7998 6ZM21.2373 9.53125C20.1201 9.53125 19.2373 10.4453 19.2373 11.5625C19.2373 12.6797 20.1201 13.5938 21.2373 13.5938C22.3545 13.5938 23.2686 12.6797 23.2686 11.5625C23.2686 10.4453 22.3545 9.53125 21.2373 9.53125ZM9.2998 16.75L9.6748 16.7812C9.07324 17.5781 8.08887 18.8555 7.95605 19.0312L6.6123 18.75L7.64355 17.5C8.0459 17.0039 8.65918 16.7148 9.2998 16.75ZM7.01855 21.9375C6.16309 22.793 5.6748 23.9766 5.33105 24.9688C4.9873 25.9609 4.83105 26.7812 4.83105 26.7812L4.51855 28.25L5.9873 27.9688C5.9873 27.9688 6.78418 27.832 7.76855 27.5C8.75293 27.168 9.93652 26.6758 10.8311 25.7812L9.4248 24.375C8.97949 24.8203 8.09668 25.2109 7.2998 25.5C7.60449 24.668 8.0498 23.7227 8.4248 23.3438L7.01855 21.9375ZM16.0186 23.125L16.0498 23.5C16.085 24.1406 15.8311 24.7539 15.3311 25.1562L14.0498 26.1875L13.7686 24.8438C13.9443 24.7148 15.2217 23.7227 16.0186 23.125Z" fill="#F0524D"/>
</svg>
